Coordinates
version=1
nRows=65
nColumns=12
inDegrees=yes

Units are S.I. units (second, meters, Newtons, ...)
Angles are in degrees

endheader
time	SC_y	SC_z	SC_x	AC_y	AC_z	AC_x	GH_y	GH_z	GH_yy	EL_x	PS_y
       0.0              -36.48          6.016          27.86           64.3          5.168         -1.135           5.24          64.46          162.7          13.34          59.47
    0.0295              -36.48          6.021          27.86           64.3          5.165         -1.134          5.263          64.46          162.7          13.35          59.48
   0.05899              -36.48          6.026          27.86           64.3          5.162         -1.132          5.287          64.46          162.7          13.37          59.49
   0.08849              -36.48          6.031          27.86           64.3          5.159          -1.13          5.313          64.46          162.6          13.39          59.51
     0.118              -36.49          6.037          27.86           64.3          5.155         -1.128           5.34          64.47          162.6           13.4          59.53
    0.1475              -36.49          6.043          27.86           64.3          5.152         -1.126          5.369          64.47          162.6          13.42          59.54
     0.177              -36.49          6.049          27.86           64.3          5.148         -1.123            5.4          64.47          162.6          13.44          59.56
    0.2065               -36.5          6.056          27.86           64.3          5.144         -1.121          5.434          64.47          162.5          13.47          59.58
     0.236               -36.5          6.063          27.85           64.3          5.139         -1.118          5.469          64.48          162.5          13.49           59.6
    0.2655              -36.51          6.071          27.85           64.3          5.134         -1.115          5.507          64.48          162.5          13.51          59.62
     0.295              -36.51           6.08          27.85          64.31          5.129         -1.112          5.548          64.48          162.4          13.54          59.65
    0.3245              -36.52          6.089          27.85          64.31          5.124         -1.109          5.593          64.49          162.4          13.57          59.67
     0.354              -36.52          6.098          27.85          64.31          5.118         -1.105           5.64          64.49          162.4           13.6           59.7
    0.3835              -36.53          6.109          27.85          64.31          5.111         -1.101          5.692          64.49          162.3          13.63          59.73
    0.4129              -36.54           6.12          27.85          64.31          5.104         -1.097          5.747           64.5          162.3          13.67          59.76
    0.4424              -36.54          6.133          27.85          64.31          5.096         -1.092          5.808           64.5          162.2          13.71           59.8
    0.4719              -36.55          6.146          27.85          64.31          5.088         -1.087          5.873          64.51          162.1          13.75          59.84
    0.5014              -36.56          6.161          27.84          64.32          5.079         -1.082          5.945          64.51          162.1           13.8          59.88
    0.5309              -36.57          6.177          27.84          64.32          5.069         -1.076          6.023          64.52          162.0          13.85          59.92
    0.5604              -36.58          6.195          27.84          64.32          5.058          -1.07          6.108          64.53          161.9          13.91          59.97
    0.5899              -36.59          6.214          27.84          64.32          5.047         -1.063          6.202          64.53          161.8          13.97          60.03
    0.6194               -36.6          6.235          27.83          64.32          5.034         -1.055          6.305          64.54          161.8          14.04          60.09
    0.6489              -36.62          6.259          27.83          64.33          5.019         -1.046          6.419          64.55          161.7          14.11          60.16
    0.6784              -36.63          6.285          27.83          64.33          5.003         -1.037          6.545          64.56          161.5           14.2          60.23
    0.7079              -36.65          6.314          27.83          64.33          4.985         -1.026          6.686          64.57          161.4          14.29          60.31
    0.7374              -36.67          6.346          27.82          64.34          4.966         -1.014          6.842          64.58          161.3          14.39           60.4
    0.7669              -36.69          6.382          27.82          64.34          4.943         -1.001          7.018           64.6          161.1          14.51          60.51
    0.7964              -36.71          6.422          27.81          64.35          4.918        -0.9859          7.215          64.61          160.9          14.64          60.62
    0.8259              -36.74          6.468          27.81          64.35           4.89         -0.969          7.439          64.63          160.7          14.78          60.75
    0.8554              -36.77           6.52           27.8          64.36          4.858        -0.9498          7.692          64.65          160.5          14.95           60.9
    0.8849              -36.81           6.58           27.8          64.37          4.822        -0.9279          7.981          64.67          160.3          15.14          61.07
    0.9144              -36.85          6.648          27.79          64.38           4.78        -0.9028          8.313           64.7          160.0          15.36          61.26
    0.9439              -36.89          6.727          27.78          64.39          4.731        -0.8738          8.696          64.73          159.6          15.61          61.48
    0.9734              -36.95          6.819          27.77           64.4          4.675        -0.8402          9.141          64.76          159.2           15.9          61.74
     1.003              -37.01          6.926          27.76          64.41          4.609        -0.8007          9.662           64.8          158.8          16.24          62.05
     1.032              -37.08          7.052          27.74          64.43          4.532        -0.7543          10.28          64.85          158.2          16.65          62.41
     1.062              -37.17          7.202          27.72          64.45          4.439        -0.6991          11.01          64.91          157.6          17.13          62.83
     1.091              -37.28          7.382           27.7          64.47          4.329        -0.6329          11.88          64.98          156.8           17.7          63.34
     1.121              -37.41            7.6          27.68           64.5          4.195        -0.5528          12.94          65.06          155.8          18.39          63.96
      1.15              -37.56          7.866          27.65          64.53          4.032         -0.455          14.23          65.16          154.7          19.24          64.72
      1.18              -37.75          8.194          27.61          64.57           3.83        -0.3343          15.83          65.28          153.3          20.29          65.65
     1.209              -37.99          8.603          27.56          64.62          3.579        -0.1838          17.82          65.44          151.5           21.6          66.81
     1.239               -38.3          9.118           27.5          64.69          3.262       0.005883          20.32          65.63          149.3          23.24          68.27
     1.268              -38.68          9.774          27.43          64.77          2.859          0.247          23.51          65.88          146.4          25.34          70.13
     1.298              -39.17          10.61          27.33          64.87          2.344         0.5555          27.59           66.2          142.8          28.02          72.51
     1.327              -39.81          11.69           27.2          65.01          1.683         0.9515          32.82          66.61          138.1          31.45          75.57
     1.357              -40.61          13.06          27.05          65.18         0.8379          1.457           39.5          67.13          132.1          35.84          79.47
     1.386              -41.63          14.79          26.85          65.39        -0.2243          2.093          47.91          67.78          124.6          41.36          84.38
     1.416              -42.87           16.9           26.6          65.66         -1.519          2.868          58.15          68.58          115.5          48.09          90.36
     1.445               -44.3          19.34          26.32          65.96         -3.019          3.767          70.02          69.51          104.9          55.89          97.29
     1.475              -45.85          21.99          26.01          66.29         -4.644          4.739          82.88          70.51          93.44          64.33          104.8
     1.504              -47.41          24.63          25.71          66.62         -6.269          5.712          95.73          71.51          81.97          72.78          112.3
     1.534              -48.84          27.07          25.43          66.93         -7.769           6.61          107.6          72.43          71.38          80.57          119.2
     1.563              -50.08          29.18          25.18          67.19         -9.063          7.385          117.8          73.23          62.24           87.3          125.2
     1.593              -51.09          30.91          24.98          67.41         -10.13          8.021          126.3          73.89          54.74          92.82          130.1
     1.622               -51.9          32.28          24.82          67.58         -10.97          8.527          132.9          74.41          48.78          97.21          134.0
     1.652              -52.53          33.36           24.7          67.71         -11.63          8.923          138.2          74.81          44.11          100.6          137.1
     1.681              -53.02           34.2           24.6          67.82         -12.15          9.232          142.2          75.13          40.47          103.3          139.5
     1.711              -53.41          34.85          24.53           67.9         -12.55          9.473          145.4          75.38          37.63          105.4          141.3
      1.74              -53.71          35.37          24.47          67.96         -12.87          9.662          147.9          75.58          35.39          107.1          142.8
      1.77              -53.95          35.78          24.42          68.02         -13.12          9.813          149.9          75.73          33.62          108.4          143.9
     1.799              -54.15          36.11          24.38          68.06         -13.32          9.934          151.5          75.86          32.19          109.4          144.9
     1.829               -54.3          36.37          24.35          68.09         -13.48          10.03          152.8          75.96          31.04          110.3          145.6
     1.858              -54.43          36.59          24.33          68.12         -13.62          10.11          153.9          76.04           30.1          111.0          146.2
     1.888              -54.53          36.77          24.31          68.14         -13.73          10.18          154.8          76.11          29.32          111.5          146.8
